<svg width="131" height="35" viewBox="0 0 131 35" fill="none" xmlns="http://www.w3.org/2000/svg">
<path d="M44.5726 34.7119V29.7788C45.5289 29.7788 46.4424 29.8159 47.3504 29.7705C49.3182 29.6727 50.6029 28.6456 51.0763 26.5432C49.0629 27.803 46.9005 27.8801 44.6968 27.4175C41.5229 26.7498 39.3839 24.8085 38.3296 21.7726C37.0711 18.1557 37.3416 14.6682 39.5992 11.4643C41.4014 8.90894 43.9253 7.70701 47.0206 7.77999C49.4658 7.83781 51.4365 9.00398 53.1821 10.6713C53.5864 10.1798 54.0846 9.68139 54.4503 9.10175C54.8311 8.49732 55.3141 8.37751 55.9806 8.52345C56.0138 8.64743 56.0355 8.77416 56.0455 8.90208C56.0455 14.4479 56.0813 19.9951 55.9903 25.5395C55.9709 26.7208 55.626 27.96 55.1623 29.0587C54.1963 31.3194 52.5501 32.9799 50.2069 33.8776C49.4231 34.1763 48.6241 34.4366 47.8334 34.7147L44.5726 34.7119ZM46.7349 12.5286C45.7579 12.6126 44.8569 12.7655 44.0399 13.4731C42.413 14.8816 42.1163 16.6577 42.2929 18.6335C42.4488 20.3889 43.3968 21.7093 44.8775 22.4885C46.3099 23.2334 47.7961 23.1618 49.2009 22.0755C50.959 20.7125 51.6131 18.9983 51.3744 16.8436C51.1508 14.8031 48.8753 12.2491 46.7349 12.5286Z" fill="white"/>
<path d="M0.872441 1.97559C1.10151 1.99348 1.33059 2.02655 1.56242 2.0293C4.92812 2.05959 8.29657 2.02927 11.6595 2.13666C13.5402 2.207 15.3328 2.94981 16.7102 4.22945C20.1311 7.33143 21.1798 11.8378 19.5446 16.004C18.057 19.7916 14.5257 22.2809 10.5887 22.1639C9.03626 22.1171 7.48241 22.1557 5.80577 22.1557V27.3421H1.0353L1.00215 17.3395C1.3292 17.3188 1.65488 17.2817 1.98193 17.2803C4.73493 17.2803 7.49347 17.184 10.241 17.3024C12.9332 17.418 15.0321 15.266 15.4102 13.0824C15.9622 9.8854 13.6384 7.24191 10.9282 7.02437L10.6163 6.98585C7.85084 6.98585 5.08589 6.98953 2.32139 6.99687C1.87981 6.99687 1.43824 6.95278 0.998039 6.92938C0.998039 5.63792 1.01184 4.3451 0.998039 3.05365C0.976079 2.78418 0.93365 2.51676 0.871094 2.25371L0.872441 1.97559Z" fill="white"/>
<path d="M0.873047 17.3564L0.999992 17.3398L1.03314 27.3425L0.873047 27.3741V17.3564Z" fill="white"/>
<path d="M0.995881 6.93397L0.873047 6.91468V2.2583C0.935603 2.52135 0.978033 2.78871 0.999992 3.05817C1.00965 4.34963 0.998641 5.64252 0.995881 6.93397Z" fill="white"/>
<path d="M75.4386 11.7748L66.7849 22.7109C68.4574 23.2768 70.4211 22.766 72.0991 20.1721L75.3447 23.6141C74.1373 25.5196 72.4648 26.7726 70.3217 27.3315C67.3962 28.0929 64.6308 27.644 62.26 25.7468C60.2067 24.1042 59.0586 21.8614 58.7398 19.2468C58.5038 17.3193 58.668 15.4179 59.4118 13.584C60.68 10.4572 62.8976 8.48978 66.266 7.91564C69.0977 7.43376 71.6354 8.14003 73.8254 9.97395C74.4312 10.4696 74.8866 11.1415 75.4386 11.7748ZM63.7863 20.2643L69.1529 12.8047C67.824 12.1397 66.0935 12.6092 64.7508 13.8662C63.157 15.3669 62.9445 18.133 63.7863 20.2643Z" fill="white"/>
<path d="M122.185 22.7491C124.364 23.2737 125.885 22.5137 127.527 20.1703L130.772 23.6221C129.711 25.2288 128.345 26.4514 126.511 27.0792C123.268 28.189 120.192 27.8172 117.541 25.624C115.574 23.9938 114.459 21.7812 114.163 19.2011C113.901 16.91 114.174 14.7044 115.233 12.6392C118.077 7.09061 124.986 6.40215 129.179 9.90478C129.813 10.4349 130.303 11.1357 130.87 11.769L122.185 22.7491ZM124.603 12.7617C123.006 12.3183 121.321 12.4754 119.842 14.1991C118.579 15.6737 118.404 18.6242 119.246 20.2213L124.603 12.7617Z" fill="white"/>
<path d="M77.8535 8.52957C79.3439 8.1358 79.5412 9.60349 80.4285 10.1501C81.5325 9.24415 82.7841 8.53781 84.2482 8.26658C86.8949 7.77781 89.3043 8.34093 91.2404 10.1941C92.9488 11.8367 93.8996 13.9225 93.9134 16.3444C93.9327 19.7768 93.923 23.2106 93.9244 26.643V27.3108H89.3278C89.3278 27.0506 89.3278 26.7807 89.3278 26.5108C89.3278 23.1955 89.2919 19.8787 89.3582 16.5647C89.3954 14.7142 87.6429 12.9368 86.1249 12.8115C84.164 12.649 82.3246 14.6633 82.3384 16.4408C82.3646 19.7561 82.348 23.0716 82.3494 26.3869V27.319H77.8535V8.52957Z" fill="white"/>
<path d="M113.037 12.13L109.835 15.5418C109.216 14.8286 108.593 14.2049 108.081 13.5C107.179 12.2609 103.966 12.3325 102.838 13.4738C101.2 15.126 100.621 16.9751 101.026 19.1628C101.162 19.875 101.473 20.5423 101.932 21.1042C103.366 22.7977 104.736 23.4269 107.038 22.6187C107.866 22.3254 108.513 21.4663 109.221 20.8426C109.406 20.6801 109.512 20.4295 109.7 20.1542L112.958 23.6141C111.602 25.6986 109.739 26.9942 107.349 27.4623C104.627 27.9951 102.059 27.5105 99.897 25.755C97.8671 24.1111 96.6168 21.944 96.3367 19.284C95.9945 16.0374 96.8887 13.1971 99.0124 10.6926C102.094 7.06886 107.855 6.69987 111.529 10.1708C112.101 10.7298 112.519 11.4526 113.037 12.13Z" fill="white"/>
<path d="M22.2891 0.864258H26.8304V27.3115H22.2891V0.864258Z" fill="white"/>
<path d="M34.9739 27.338H30.4697V8.50586H34.9739V27.338Z" fill="white"/>
<path d="M32.6707 0C34.3639 0 35.7963 1.45667 35.7907 3.23001C35.7907 5.2498 34.4522 6.3348 32.9108 6.42291C30.9954 6.53306 29.6541 5.15758 29.6721 3.24931C29.6886 1.36444 31.0382 0.0839859 32.6707 0Z" fill="#FFC200"/>
<path d="M10.9261 7.02882L10.6143 6.99023L10.9261 7.02882Z" fill="white"/>
</svg>
