<svg width="71" height="71" viewBox="0 0 71 71" fill="none" xmlns="http://www.w3.org/2000/svg">
<path d="M31.5348 0.28418C34.1043 0.28418 36.6754 0.28418 39.2448 0.28418C39.538 0.379024 39.8242 0.516979 40.1243 0.563539C44.2388 1.20676 48.1585 2.41904 51.8522 4.37628C56.9997 7.10434 61.2056 10.8757 64.4906 15.6679C67.5325 20.1066 69.4777 24.9902 70.2434 30.3326C70.3089 30.7895 70.5038 31.2293 70.64 31.6759V39.3859C70.5486 39.5187 70.4003 39.6411 70.3744 39.7842C70.1123 41.1931 69.9537 42.6278 69.6088 44.0143C68.4068 48.8496 66.2444 53.2349 63.2111 57.1838C62.7627 57.7667 62.2023 58.2633 61.6936 58.7996C61.9988 57.7701 61.8971 56.8269 61.0021 56.1302C59.745 55.1507 58.3689 54.3368 56.8117 53.985C53.3301 53.1986 49.8225 52.5261 46.3357 51.7536C45.7649 51.6277 45.1683 51.3207 44.7372 50.9276C44.1077 50.3533 43.9698 47.7442 44.3957 46.982C45.0545 45.8042 45.7373 44.6351 46.3443 43.4314C46.9393 42.2536 47.7153 41.2362 48.5775 40.2377C49.5587 39.1031 50.514 37.8856 51.1883 36.5561C52.3592 34.2505 52.7006 31.8139 51.4987 29.3514C51.3763 29.1013 51.3642 28.7754 51.3728 28.4857C51.4832 24.5902 50.8227 20.7602 50.2347 16.9406C49.8105 14.1849 48.2516 12.1604 45.3252 11.6C43.8318 11.3137 42.4195 10.8774 41.0227 10.2566C39.0586 9.38233 36.9375 8.96501 34.7871 9.14263C30.4864 9.49614 26.7237 11.1671 23.5938 14.1504C21.5969 16.0525 20.0639 18.2942 19.6397 21.0689C19.3775 22.7795 19.4103 24.5402 19.3655 26.2801C19.3327 27.6028 19.4982 28.9306 18.8826 30.1894C18.6878 30.5878 18.6222 31.0689 18.5808 31.5207C18.3463 34.1608 19.0758 36.5612 20.7674 38.553C22.6902 40.8154 24.3767 43.19 25.7338 45.8456C26.3253 47.0027 26.6547 48.0753 26.584 49.3411C26.5098 50.6654 25.8821 51.4897 24.5836 51.7553C22.0263 52.2743 19.4689 52.7986 16.9047 53.2831C14.525 53.7332 12.2194 54.3471 10.2173 55.8025C9.00158 56.6855 8.72222 57.3632 9.08263 58.7996C8.96537 58.7375 8.81534 58.7048 8.73602 58.6117C5.83551 55.2197 3.61788 51.4294 2.13486 47.2183C1.09157 44.2557 0.40007 41.2138 0.263839 38.0615C0.256942 37.9011 0.0913953 37.7494 0 37.5925C0 36.2163 0 34.8385 0 33.4624C0.0913953 33.3072 0.241422 33.1589 0.263839 32.9934C0.336266 32.4519 0.355235 31.9035 0.410417 31.3603C0.757029 27.8494 1.71409 24.4953 3.14193 21.2844C5.8493 15.2006 9.96382 10.2549 15.4424 6.48009C19.9018 3.41576 24.8112 1.44128 30.1898 0.680801C30.6485 0.615272 31.0865 0.418686 31.5348 0.28418Z" fill="#173371"/>
<path d="M61.6109 58.9323C59.0225 62.0052 55.9082 64.435 52.4059 66.3715C46.6962 69.529 40.5607 71.0361 34.0509 70.7378C24.3992 70.2946 16.2306 66.5233 9.60008 59.472C9.44316 59.3065 9.31382 59.1133 9.17242 58.934L9.08965 58.8081V58.8047C8.72751 57.3682 9.00687 56.6905 10.2226 55.8076C12.2247 54.3522 14.5303 53.7383 16.91 53.2882C19.4742 52.8036 22.0316 52.2794 24.5889 51.7603C25.8891 51.4965 26.5168 50.6722 26.5893 49.3461C26.66 48.0804 26.3306 47.0078 25.7391 45.8507C24.382 43.1967 22.6955 40.8222 20.7727 38.558C19.0811 36.5663 18.3499 34.1658 18.5861 31.5257C18.6258 31.0739 18.6931 30.5928 18.8879 30.1945C19.5053 28.9356 19.338 27.6061 19.3708 26.2852C19.4139 24.5452 19.3828 22.7863 19.6449 21.0739C20.0692 18.301 21.6022 16.0575 23.5991 14.1554C26.7307 11.1722 30.4934 9.50117 34.7924 9.14766C36.9428 8.97005 39.0639 9.38736 41.028 10.2617C42.4248 10.8825 43.8354 11.3187 45.3305 11.605C48.2569 12.1654 49.8158 14.1882 50.24 16.9456C50.8263 20.7652 51.4885 24.5935 51.3781 28.4907C51.3695 28.7804 51.3816 29.1063 51.504 29.3564C52.7059 31.8189 52.3645 34.2572 51.1936 36.5611C50.5193 37.8906 49.564 39.1064 48.5828 40.2428C47.7206 41.2412 46.9446 42.2586 46.3496 43.4364C45.7409 44.6401 45.0598 45.8093 44.401 46.9871C43.9751 47.7493 44.113 50.3583 44.7425 50.9326C45.1736 51.3258 45.7702 51.631 46.341 51.7586C49.8261 52.5311 53.3336 53.2037 56.817 53.99C58.3742 54.3418 59.7503 55.154 61.0074 56.1352C61.9024 56.8336 62.0041 57.7752 61.6989 58.8047V58.8098C61.6696 58.8512 61.6437 58.8926 61.6161 58.934L61.6109 58.9323Z" fill="white"/>
<path d="M9.08936 58.8066L9.17213 58.9325C9.14454 58.8911 9.11695 58.848 9.08936 58.8066Z" fill="#173371"/>
<path d="M61.6108 58.9323C61.6384 58.8909 61.6643 58.8495 61.6919 58.8081C61.6643 58.8495 61.6384 58.8909 61.6108 58.9323Z" fill="#173371"/>
</svg>
