<svg width="40" height="38" viewBox="0 0 40 38" fill="none" xmlns="http://www.w3.org/2000/svg">
<g clip-path="url(#clip0_5204_838)">
<path d="M0 37.1286V0.869436C0.280822 0.253262 0.746575 0 1.44227 0C13.8209 0.0116442 26.2006 0.00873318 38.5793 0.00873318C39.5763 0.00873318 39.999 0.430837 39.999 1.41672C39.999 13.1376 39.999 24.8595 39.999 36.5804C39.999 36.6706 40.001 36.7609 39.998 36.8511C39.9795 37.3751 39.6272 37.8341 39.1223 37.9515C38.9237 37.9981 38.7084 37.9874 38.501 37.9874C26.1742 37.9893 13.8474 37.9845 1.52055 37.9981C0.804305 37.9981 0.292564 37.7865 0 37.1267L0 37.1286ZM5.05577 27.2747C5.05577 29.0436 5.05284 30.8116 5.05675 32.5806C5.05871 33.4597 5.49022 33.8915 6.36791 33.8925C9.50489 33.8954 12.6429 33.8954 15.7798 33.8925C16.6751 33.8925 17.1135 33.449 17.1135 32.5602C17.1135 29.0485 17.1135 25.5368 17.1135 22.0251C17.1135 21.1372 16.6703 20.6928 15.7789 20.6918C12.6546 20.6899 9.53033 20.6899 6.40607 20.6918C5.48337 20.6918 5.05773 21.1178 5.05675 22.0445C5.05382 23.7872 5.05675 25.53 5.05675 27.2727L5.05577 27.2747ZM19.6477 14.8726C15.2994 14.8726 10.9511 14.8726 6.60176 14.8726C6.44521 14.8726 6.28865 14.8707 6.13307 14.8813C5.56849 14.9192 5.12035 15.3423 5.06947 15.8789C5.00881 16.5125 5.34834 17.0151 5.94618 17.152C6.12133 17.1917 6.30626 17.2073 6.48728 17.2073C15.2368 17.2102 23.9853 17.2102 32.7348 17.2073C32.9159 17.2073 33.1008 17.1947 33.2759 17.1558C33.9902 16.9948 34.3826 16.2631 34.1018 15.5984C33.864 15.0356 33.4002 14.8668 32.8112 14.8678C28.4237 14.8765 24.0362 14.8726 19.6487 14.8726H19.6477ZM21.5294 9.18245L21.4569 9.18827C21.4384 9.13199 21.4188 9.07668 21.4012 9.0204C21.0489 7.8521 20.6986 6.68379 20.3454 5.51646C20.1673 4.92842 19.7603 4.72077 19.1468 4.92357C18.6536 5.08659 18.2505 5.41554 18.4834 6.08508C19.091 7.83172 19.6742 9.58709 20.2143 11.3551C20.4569 12.1508 20.9501 12.2701 21.4941 12.3089C22.2104 12.3604 22.6389 12.0198 22.7975 11.326C22.8571 11.064 22.9159 10.802 22.9746 10.54C23.0939 10.8524 23.1536 11.1542 23.2241 11.454C23.3542 12.0071 23.7153 12.2691 24.3982 12.3138C24.9961 12.3536 25.5333 12.0644 25.6908 11.5889C26.3131 9.71226 26.9247 7.83172 27.5431 5.95312C27.6497 5.62999 27.5871 5.33209 27.2945 5.1778C27.0098 5.0274 26.68 4.92939 26.3591 4.88864C26.0176 4.84594 25.7759 5.03031 25.682 5.38934C25.5714 5.81144 25.4325 6.22579 25.3063 6.64401C25.0479 7.5018 24.7906 8.35959 24.5323 9.21738C24.3043 8.51873 24.1448 7.82493 23.9795 7.1321C23.8611 6.63527 23.5382 6.40821 22.9785 6.415C22.4256 6.4218 22.1448 6.62848 22.0225 7.12821C21.8552 7.81134 21.6928 8.49641 21.5284 9.18051L21.5294 9.18245ZM8.45597 9.38526L8.53914 9.36391C8.76321 9.7666 8.9863 10.1703 9.21135 10.573C9.43738 10.9776 9.64579 11.3929 9.89628 11.782C10.183 12.2264 10.7397 12.3672 11.32 12.1847C11.7446 12.0508 11.8757 11.8208 11.8757 11.2105C11.8757 9.37846 11.8777 7.54644 11.8757 5.71344C11.8757 5.14675 11.5205 4.84012 10.8757 4.85953C10.1898 4.87991 9.87573 5.23505 9.90705 5.70956C9.9501 6.36649 9.91781 7.02924 9.91781 7.68908C9.78376 7.57652 9.71526 7.45619 9.64873 7.3349C9.29158 6.67894 8.95205 6.01328 8.57436 5.36993C8.25832 4.83236 7.73483 4.78287 7.0499 4.92745C6.62133 5.0177 6.50685 5.28745 6.50685 5.94535C6.50685 7.71334 6.50685 9.48035 6.50685 11.2483C6.50685 12.011 6.98826 12.3895 7.74853 12.2294C8.27202 12.1187 8.45205 11.9053 8.45401 11.3842C8.45597 10.7176 8.45401 10.0519 8.45401 9.38526H8.45597ZM27.8894 30.8233V30.8213C26.2622 30.8213 24.635 30.8184 23.0068 30.8252C22.7887 30.8252 22.5587 30.8378 22.3562 30.9077C21.8346 31.0882 21.5656 31.5656 21.6252 32.1342C21.6781 32.6398 22.0431 33.0551 22.5734 33.1104C23.089 33.1647 23.6115 33.155 24.1321 33.155C26.9961 33.1589 29.8611 33.1667 32.725 33.1444C33.0675 33.1414 33.4472 33.0299 33.7407 32.8542C34.1399 32.6155 34.2544 32.0527 34.0988 31.6073C33.9286 31.1183 33.5411 30.8301 32.9667 30.8271C31.274 30.8165 29.5822 30.8233 27.8894 30.8233ZM27.8914 20.6831V20.6753C26.2769 20.6753 24.6624 20.6734 23.0479 20.6773C22.8405 20.6773 22.6252 20.6753 22.4286 20.7277C21.9159 20.8645 21.589 21.3604 21.6184 21.9086C21.6468 22.4404 22.0049 22.8596 22.5342 22.9624C22.6986 22.9945 22.8699 23.008 23.0372 23.009C26.2661 23.0119 29.4951 23.0129 32.7231 23.0061C32.9658 23.0061 33.2221 22.9789 33.4472 22.8965C33.9658 22.7072 34.2348 22.1735 34.1419 21.6088C34.0577 21.1023 33.6076 20.6928 33.046 20.6879C31.3278 20.6734 29.6096 20.6821 27.8904 20.6821L27.8914 20.6831ZM27.8581 28.0704C29.5362 28.0704 31.2133 28.0723 32.8914 28.0694C33.6546 28.0675 34.1536 27.6036 34.1546 26.9079C34.1546 26.217 33.6468 25.7396 32.8885 25.7386C29.5587 25.7357 26.229 25.7357 22.9002 25.7386C22.138 25.7386 21.6233 26.2073 21.6145 26.8904C21.6067 27.5949 22.1194 28.0684 22.9031 28.0704C24.5548 28.0733 26.2065 28.0704 27.8581 28.0704ZM15.0313 6.60519C15.8053 6.60519 16.545 6.61005 17.2838 6.60325C17.7466 6.59937 18.0274 6.2811 18.0479 5.76002C18.0685 5.25349 17.7916 4.87117 17.3464 4.86535C16.2153 4.8508 15.0832 4.84206 13.9521 4.87214C13.2838 4.88961 13.0744 5.15355 13.0744 5.82988C13.0734 7.64832 13.0724 9.46774 13.0744 11.2862C13.0744 11.9712 13.3415 12.2517 14.0323 12.2575C15.1115 12.2672 16.1918 12.2633 17.271 12.2585C17.7573 12.2565 18.046 11.9286 18.0489 11.3949C18.0519 10.867 17.7671 10.5264 17.2838 10.5167C16.6468 10.5041 16.0088 10.5147 15.3718 10.5118C15.2613 10.5118 15.1517 10.4934 15.046 10.4837V9.34159C15.4051 9.34159 15.7407 9.34644 16.0753 9.34062C16.6409 9.33189 16.909 9.0728 16.9051 8.55269C16.9002 8.02676 16.6262 7.7638 16.0734 7.75894C15.729 7.75603 15.3855 7.75894 15.0323 7.75894V6.60519H15.0313ZM30.498 12.341C30.5626 12.341 30.6282 12.3419 30.6928 12.341C31.9149 12.3118 32.774 11.7034 33.0646 10.6603C33.3689 9.57156 32.9569 8.55754 31.908 7.92876C31.4227 7.63765 30.8904 7.42417 30.3933 7.1515C30.2798 7.0894 30.1399 6.90794 30.1614 6.81479C30.1869 6.70514 30.3796 6.54988 30.4902 6.55765C30.8953 6.58385 31.3131 6.61878 31.6947 6.74589C32.2123 6.91862 32.5812 6.86137 32.8063 6.45673C33.1076 5.91624 33.0078 5.45144 32.5245 5.14966C31.6526 4.6053 29.7397 4.72756 28.9296 5.37964C27.7965 6.29274 27.9247 8.03646 29.2035 8.83215C29.7387 9.16498 30.3278 9.41437 30.865 9.74526C31.0166 9.83841 31.0714 10.0859 31.1712 10.2625C30.9883 10.3595 30.8141 10.505 30.6194 10.5448C30.1389 10.6428 29.773 10.3595 29.4247 10.0926C28.7368 9.56574 28.2182 10.0761 28.0489 10.603C27.9061 11.0504 28.0871 11.4705 28.5499 11.7908C29.1341 12.1935 29.7965 12.339 30.498 12.3419V12.341Z" fill="white"/>
<path d="M7.43042 23.0391H14.7347V31.5423H7.43042V23.0391Z" fill="#FFC200"/>
</g>
<defs>
<clipPath id="clip0_5204_838">
<rect width="40" height="38" fill="white"/>
</clipPath>
</defs>
</svg>
