<svg width="12" height="12" viewBox="0 0 12 12" fill="none" xmlns="http://www.w3.org/2000/svg">
<path d="M11.6518 5.43888C11.6384 5.46396 11.6238 5.48819 11.6116 5.51384C11.5187 5.70936 11.3095 5.81766 11.1063 5.77491C10.8942 5.73016 10.7426 5.54833 10.742 5.3283C10.7406 4.48267 10.742 3.63675 10.7412 2.79112C10.7406 2.31886 10.4758 1.94207 10.0406 1.856C9.78438 1.80527 9.51475 1.82208 9.23972 1.80783C9.23972 1.97485 9.24086 2.12134 9.23972 2.26812C9.23715 2.53433 9.04249 2.73127 8.78398 2.73098C8.52576 2.7307 8.33253 2.53347 8.32996 2.26641C8.32882 2.12277 8.32996 1.97884 8.32996 1.82094H6.25906C6.25906 1.96715 6.25963 2.10966 6.25906 2.25216C6.25764 2.53034 6.06953 2.72984 5.80789 2.73098C5.53998 2.73241 5.35016 2.53319 5.34902 2.24846C5.34845 2.10909 5.34902 1.96972 5.34902 1.82579H3.30007V2.05408C3.30007 2.5272 3.16127 2.73212 2.84206 2.73098C2.52541 2.72984 2.38974 2.52492 2.38974 2.04838V1.80812C2.12468 1.82265 1.85934 1.80584 1.60824 1.85771C1.16961 1.94863 0.911101 2.31971 0.910816 2.79511C0.910246 4.54366 0.910816 6.29192 0.910816 8.04047C0.910816 8.61705 0.909676 9.19334 0.911386 9.76992C0.912241 10.0854 1.0177 10.3539 1.27478 10.552C1.45718 10.6925 1.66724 10.7412 1.89126 10.7412C3.02532 10.7421 4.15938 10.7418 5.29316 10.7415C5.47585 10.7415 5.61522 10.8199 5.70244 10.9792C5.78737 11.1343 5.78081 11.2927 5.68619 11.4421C5.60183 11.5758 5.47671 11.6507 5.31767 11.6507C4.1115 11.6516 2.90504 11.6687 1.69973 11.6433C0.929057 11.6271 0.241323 11.0542 0.0506502 10.2542C0.0175888 10.1156 0.0024832 9.96972 0.0024832 9.82721C-0.00036692 7.46418 -0.000651932 5.10114 0.00105814 2.73839C0.00162816 1.7152 0.807357 0.913748 1.83226 0.910328C2.01381 0.909758 2.19536 0.910328 2.38974 0.910328C2.38974 0.796893 2.39772 0.687734 2.38832 0.579999C2.36381 0.302113 2.4704 0.106594 2.73119 0H2.95863C3.2197 0.106594 3.32601 0.302113 3.3015 0.579999C3.29209 0.687734 3.30007 0.796893 3.30007 0.910328C3.65006 0.910328 3.98695 0.910328 4.32412 0.910328C4.66129 0.910328 5.00359 0.910328 5.34817 0.910328C5.34817 0.863586 5.34817 0.829955 5.34817 0.796038C5.34817 0.682318 5.34788 0.568599 5.34817 0.454594C5.34902 0.218604 5.4921 0.0889237 5.68932 0H5.91676C6.17784 0.106594 6.28414 0.302113 6.25963 0.579999C6.25023 0.687734 6.25821 0.796893 6.25821 0.903488H8.3291C8.3291 0.863301 8.3291 0.82967 8.3291 0.796038C8.3291 0.682318 8.32882 0.568599 8.3291 0.454594C8.32996 0.218604 8.47304 0.0889237 8.67026 0H8.8977C9.15763 0.106594 9.26508 0.300688 9.24057 0.578289C9.23117 0.686024 9.23915 0.795183 9.23915 0.910613C9.45775 0.910613 9.66524 0.908618 9.87245 0.910898C10.6063 0.918878 11.2887 1.40425 11.5363 2.09769C11.5834 2.22965 11.6133 2.36788 11.6512 2.50297V5.4386L11.6518 5.43888Z" fill="#FFC200"/>
<path d="M11.652 9.21642C11.6289 9.31674 11.6084 9.41792 11.5819 9.51739C11.2846 10.6306 10.5763 11.3426 9.45538 11.5917C8.22299 11.8656 6.98205 11.2463 6.44195 10.1299C5.9372 9.08674 6.05262 8.08492 6.75888 7.17118C7.20265 6.59688 7.80744 6.26085 8.52995 6.17107C9.78257 6.01517 10.9018 6.64419 11.418 7.79763C11.5226 8.03163 11.5602 8.29555 11.6292 8.5455C11.6346 8.56488 11.6443 8.58312 11.652 8.60193V9.21642ZM8.90246 10.7407C9.9134 10.7358 10.7491 9.89532 10.7411 8.89094C10.7331 7.882 9.9057 7.05689 8.89989 7.05518C7.89238 7.05318 7.05416 7.8914 7.05558 8.8992C7.05701 9.90871 7.89637 10.7455 8.90246 10.7407Z" fill="#FFC200"/>
<path d="M3.30022 4.77936C3.30022 5.03615 3.09729 5.23595 2.83907 5.23395C2.58798 5.23196 2.38989 5.03102 2.38989 4.77822C2.38989 4.52142 2.59282 4.32163 2.85104 4.32362C3.10214 4.32562 3.30022 4.52655 3.30022 4.77936Z" fill="#FFC200"/>
<path d="M5.2802 4.77845C5.2802 5.03553 5.07784 5.23561 4.81991 5.23419C4.56881 5.23248 4.37016 5.03183 4.36987 4.77959C4.36987 4.52251 4.57223 4.32244 4.83017 4.32386C5.08126 4.32557 5.27992 4.52622 5.2802 4.77845Z" fill="#FFC200"/>
<path d="M7.25969 4.78046C7.25912 5.03697 7.05591 5.23648 6.79741 5.2342C6.54659 5.23192 6.3488 5.03042 6.34937 4.77761C6.34994 4.5211 6.55315 4.32159 6.81166 4.32387C7.06247 4.32615 7.26026 4.52766 7.25969 4.78046Z" fill="#FFC200"/>
<path d="M9.23992 4.7785C9.23992 5.03529 9.03756 5.23566 8.77934 5.23395C8.52824 5.23224 8.32959 5.03159 8.32959 4.77907C8.32959 4.52227 8.53195 4.32191 8.79017 4.32362C9.04126 4.32533 9.23992 4.52598 9.23992 4.7785Z" fill="#FFC200"/>
<path d="M2.38993 6.74888C2.39307 6.49436 2.60027 6.29856 2.86048 6.30369C3.1093 6.30882 3.30339 6.51403 3.30026 6.76854C3.29712 7.02306 3.08992 7.21886 2.8297 7.21373C2.58089 7.2086 2.38679 7.00339 2.38993 6.74888Z" fill="#FFC200"/>
<path d="M4.83194 6.30361C5.08702 6.30589 5.28425 6.51167 5.28026 6.77131C5.27627 7.0207 5.07249 7.21622 4.81826 7.21394C4.56317 7.21166 4.36594 7.00588 4.36993 6.74623C4.37392 6.49685 4.57771 6.30133 4.83194 6.30361Z" fill="#FFC200"/>
<path d="M3.30022 8.73993C3.29965 8.99644 3.09644 9.19595 2.83793 9.19367C2.58712 9.19139 2.38932 8.98989 2.38989 8.73708C2.39046 8.48057 2.59368 8.28106 2.85218 8.28334C3.10299 8.28562 3.30079 8.48713 3.30022 8.73993Z" fill="#FFC200"/>
<path d="M4.82513 9.19365C4.56805 9.19365 4.36797 8.99129 4.36939 8.73336C4.3711 8.48226 4.57175 8.28361 4.82399 8.28333C5.08107 8.28333 5.28115 8.48568 5.27972 8.74362C5.27801 8.99471 5.07736 9.19337 4.82513 9.19365Z" fill="#FFC200"/>
<path d="M9.35301 8.43038C9.48155 8.44349 9.59784 8.4395 9.70472 8.46943C9.91563 8.52842 10.0405 8.74389 10.0111 8.96506C9.9826 9.17797 9.79336 9.34869 9.57447 9.35182C9.34361 9.35524 9.11246 9.35553 8.8816 9.35182C8.6439 9.34812 8.44781 9.15545 8.44496 8.91889C8.44069 8.59341 8.4404 8.26764 8.44496 7.94187C8.44838 7.69676 8.65587 7.50723 8.90611 7.50979C9.14837 7.51207 9.34731 7.70417 9.35244 7.94586C9.35615 8.10775 9.35301 8.26992 9.35301 8.43038Z" fill="#FFC200"/>
</svg>
