<svg width="13" height="13" viewBox="0 0 13 13" fill="none" xmlns="http://www.w3.org/2000/svg">
<path d="M0.979451 3.96022C0.982774 3.95048 0.986102 3.94066 0.989448 3.93078C1.01695 3.84958 1.04578 3.76451 1.08433 3.68674L1.08435 3.6867C1.33681 3.17873 1.75736 2.90679 2.32025 2.89195L0.979451 3.96022ZM0.979451 3.96022L0.95 3.93078V4.05147V4.06611V4.08074V4.09538V4.11001V4.12464V4.13928V4.15391V4.16855V4.18318V4.19782V4.21245V4.22708V4.24172V4.25635V4.27099V4.28562V4.30026V4.31489V4.32953V4.34416V4.35879V4.37343V4.38806V4.4027V4.41733V4.43197V4.4466V4.46123V4.47587V4.4905V4.50514V4.51977V4.53441V4.54904V4.56367V4.57831V4.59294V4.60758V4.62221V4.63685V4.65148V4.66611V4.68075V4.69538V4.71002V4.72465V4.73929V4.75392V4.76855V4.78319V4.79782V4.81246V4.82709V4.84172V4.85636V4.87099V4.88563V4.90026V4.9149V4.92953V4.94416V4.9588V4.97343V4.98807V5.0027V5.01733V5.03197V5.0466V5.06124V5.07587V5.09051V5.10514V5.11977V5.13441V5.14904V5.16368V5.17831V5.19294V5.20758V5.22221V5.23685V5.25148V5.26611V5.28075V5.29538V5.31002V5.32465V5.33928V5.35392V5.36855V5.38319V5.39782V5.41246V5.42709V5.44172V5.45636V5.47099V5.48563V5.50026V5.51489V5.52953V5.54416V5.5588V5.57343V5.58806V5.6027V5.61733V5.63197V5.6466V5.66123V5.67587V5.6905V5.70514V5.71977V5.7344V5.74904V5.76367V5.77831V5.79294V5.80757V5.82221V5.83684V5.85148V5.86611V5.88074V5.89538V5.91001V5.92464V5.93928V5.95391V5.96855V5.98318V5.99781V6.01245V6.02708V6.04172V6.05635V6.07098V6.08562V6.10025V6.11489V6.12952V6.14415V6.15879V6.17342V6.18806V6.20269V6.21732V6.23196V6.24659V6.26122V6.27586V6.29049V6.30513V6.31976V6.33439V6.34903V6.36366V6.3783V6.39293V6.40756V6.4222V6.43683V6.45147V6.4661V6.48073V6.49537V6.51V6.52463V6.53927V6.5539V6.56854V6.58317V6.5978V6.61244V6.62707V6.64171V6.65634V6.67097V6.68561V6.70024V6.71487V6.72951V6.74414V6.75878V6.77341V6.78804V6.80268V6.81731V6.83195V6.84658V6.86121V6.87585V6.89048V6.90511V6.91975V6.93438V6.94902V6.96365V6.97828V6.99292V7.00755V7.02218V7.03682V7.05145V7.06609V7.08072V7.09535V7.10999V7.12462V7.13926V7.15389V7.16852V7.18316V7.19779V7.21242V7.22706V7.24169V7.25633V7.27096V7.28559V7.30023V7.31486V7.32949V7.34413V7.35876V7.3734V7.38803V7.40266V7.4173V7.43193V7.44656V7.4612V7.47583V7.49047V7.5051V7.51973V7.53437V7.549V7.56363V7.57827V7.5929V7.60754V7.62217V7.6368V7.65144V7.66607V7.68071V7.69534V7.70997V7.72461V7.73924V7.75387V7.76851V7.78314V7.79778V7.81241V7.82704V7.84168V7.85631V7.87094V7.88558V7.90021V7.91485V7.92948V7.94411V7.95875V7.97338V7.98801V8.00265V8.01728V8.03192V8.04655V8.06118V8.07582V8.09045V8.10508V8.11972V8.13435V8.14899V8.16362V8.17825V8.19289V8.20752V8.22216V8.23679V8.25142V8.26606V8.28069V8.29532V8.30996V8.32459V8.33923V8.35386V8.36849V8.38313V8.39776V8.41239V8.42703V8.44166V8.4563V8.47093V8.48556V8.5002V8.51483V8.52946V8.5441V8.55873V8.57337V8.588V8.60263V8.61727V8.6319V8.64653V8.66117V8.6758V8.69044V8.70507V8.7197V8.73434V8.74897V8.76361V8.77824V8.79287V8.80751V8.82214V8.83677V8.85141V8.86604V8.88068V8.89531V8.90994V8.92458V8.93921V8.95385V8.96848V8.98311V8.99775V9.01238V9.02701V9.04165V9.05628V9.07092V9.08555V9.10018V9.11482V9.12945V9.14409V9.15872V9.17335V9.18799V9.20262V9.21725V9.23189V9.24652V9.26116V9.27579V9.29042V9.30506V9.31969V9.33433V9.34896V9.36359V9.37823V9.39286V9.4075V9.42213V9.43676V9.4514V9.46603V9.48066V9.4953V9.50993V9.52457V9.5392V9.55383V9.56847V9.5831V9.59774V9.61237V9.627V9.64164V9.65627V9.67091V9.68554V9.70017V9.71481V9.72944V9.74408V9.75871V9.77334V9.78798V9.80261V9.81725V9.83188V9.84651V9.86115V9.87578V9.89042V9.90505V9.91968V9.93432V9.94895V9.96359V9.97822V9.99285V10.0075V10.0221V10.0368V10.0514V10.066V10.0807V10.0953V10.1099V10.1246V10.1392V10.1538V10.1685V10.1831V10.1977V10.2124V10.227V10.2416V10.2563V10.2709V10.2855V10.3002V10.3148V10.3294V10.3441V10.3587V10.3733V10.388V10.4026V10.4172V10.4319V10.4465V10.4611V10.4758V10.4904V10.505V10.5197V10.5343V10.5489V10.5636V10.5782V10.5929V10.6075V10.6221V10.6368V10.6514V10.666V10.6807V10.6953V10.7099V10.7246V10.7392V10.7538V10.7685V10.7831V10.7977V10.8124V10.827V10.8416V10.8563V10.8709V10.8855V10.9002V10.9148V10.9294V10.9441V10.9587V10.9733V10.988V11.0026V11.0172V11.0319V11.0465V11.0611V11.0758V11.0904V11.105V11.1197V11.1343V11.149V11.1636V11.1782V11.1929V11.2075V11.2221V11.2368V11.2514V11.266V11.2807V11.2953V11.3099V11.3246V11.3392V11.3538V11.3685V11.3831V11.3977V11.4124V11.427V11.4416V11.4563V11.4709V11.4855V11.5002V11.5148V11.5294V11.5441V11.5523L0.952636 11.5601C0.961144 11.5853 0.969663 11.6107 0.978215 11.6363C0.990497 11.6729 1.00285 11.7098 1.01532 11.7463L1.01535 11.7464C1.18757 12.2471 1.53829 12.5542 2.04523 12.6836C2.05006 12.6849 2.05584 12.6872 2.06417 12.6912C2.06618 12.6922 2.06884 12.6936 2.07185 12.6951C2.07838 12.6984 2.08655 12.7025 2.09331 12.7056L2.10311 12.71H2.11387H11.5008H11.5148L11.5268 12.7027C11.5315 12.6998 11.5358 12.6968 11.5388 12.6946L11.5464 12.6891L11.5479 12.6881C12.201 12.5721 12.6863 12.0026 12.687 11.3421C12.6884 9.96842 12.6877 8.59495 12.687 7.2213V7.22114C12.687 7.22113 12.687 7.22112 12.687 7.22112C12.687 7.17566 12.6851 7.12222 12.6695 7.07212L0.979451 3.96022ZM1.93598 3.90672C2.04249 3.78969 2.20392 3.71523 2.42492 3.72136L12.198 6.78308C12.198 6.78309 12.198 6.78309 12.198 6.78309C12.0046 6.81567 11.8608 6.99269 11.8607 7.19697C11.8602 8.27442 11.8602 9.35187 11.8603 10.4293C11.8603 10.6989 11.8603 10.9686 11.8603 11.2382C11.8603 11.4544 11.8019 11.6131 11.6968 11.718C11.5917 11.8229 11.4325 11.8812 11.2157 11.8812H11.1985H11.1813H11.1642H11.147H11.1298H11.1126H11.0955H11.0783H11.0611H11.0439H11.0268H11.0096H10.9924H10.9752H10.9581H10.9409H10.9237H10.9065H10.8894H10.8722H10.855H10.8378H10.8207H10.8035H10.7863H10.7691H10.752H10.7348H10.7176H10.7004H10.6833H10.6661H10.6489H10.6317H10.6145H10.5974H10.5802H10.563H10.5458H10.5287H10.5115H10.4943H10.4771H10.46H10.4428H10.4256H10.4084H10.3913H10.3741H10.3569H10.3397H10.3226H10.3054H10.2882H10.271H10.2539H10.2367H10.2195H10.2023H10.1852H10.168H10.1508H10.1336H10.1165H10.0993H10.0821H10.0649H10.0478H10.0306H10.0134H9.99624H9.97907H9.96189H9.94472H9.92754H9.91037H9.89319H9.87602H9.85884H9.84167H9.82449H9.80732H9.79014H9.77297H9.75579H9.73862H9.72144H9.70427H9.68709H9.66992H9.65274H9.63557H9.61839H9.60122H9.58404H9.56686H9.54969H9.53251H9.51534H9.49817H9.48099H9.46381H9.44664H9.42946H9.41229H9.39511H9.37794H9.36076H9.34359H9.32641H9.30924H9.29206H9.27489H9.25771H9.24054H9.22336H9.20619H9.18901H9.17184H9.15466H9.13749H9.12031H9.10314H9.08596H9.06879H9.05161H9.03444H9.01726H9.00008H8.98291H8.96573H8.94856H8.93138H8.91421H8.89703H8.87986H8.86268H8.84551H8.82833H8.81116H8.79398H8.77681H8.75963H8.74246H8.72528H8.70811H8.69093H8.67376H8.65658H8.63941H8.62223H8.60506H8.58788H8.57071H8.55353H8.53636H8.51918H8.50201H8.48483H8.46766H8.45048H8.43331H8.41613H8.39895H8.38178H8.3646H8.34743H8.33025H8.31308H8.2959H8.27873H8.26155H8.24438H8.2272H8.21003H8.19285H8.17568H8.1585H8.14133H8.12415H8.10698H8.0898H8.07263H8.05545H8.03828H8.0211H8.00393H7.98675H7.96958H7.9524H7.93523H7.91805H7.90088H7.8837H7.86653H7.84935H7.83217H7.815H7.79782H7.78065H7.76347H7.7463H7.72912H7.71195H7.69477H7.6776H7.66042H7.64325H7.62607H7.6089H7.59172H7.57455H7.55737H7.5402H7.52302H7.50585H7.48867H7.4715H7.45432H7.43715H7.41997H7.4028H7.38562H7.36845H7.35127H7.3341H7.31692H7.29975H7.28257H7.26539H7.24822H7.23104H7.21387H7.19669H7.17952H7.16234H7.14517H7.12799H7.11082H7.09364H7.07647H7.05929H7.04212H7.02494H7.00777H6.99059H6.97342H6.95624H6.93907H6.92189H6.90472H6.88754H6.87037H6.85319H6.83602H6.81884H6.80167H6.78449H6.76732H6.75014H6.73296H6.71579H6.69861H6.68144H6.66426H6.64709H6.62991H6.61274H6.59556H6.57839H6.56121H6.54404H6.52686H6.50969H6.49251H6.47534H6.45816H6.44099H6.42381H6.40664H6.38946H6.37229H6.35511H6.33794H6.32076H6.30359H6.28641H6.26924H6.25206H6.23489H6.21771H6.20054H6.18336H6.16618H6.14901H6.13183H6.11466H6.09748H6.08031H6.06313H6.04596H6.02878H6.01161H5.99443H5.97726H5.96008H5.94291H5.92573H5.90856H5.89138H5.87421H5.85703H5.83986H5.82268H5.80551H5.78833H5.77116H5.75398H5.73681H5.71963H5.70246H5.68528H5.66811H5.65093H5.63376H5.61658H5.5994H5.58223H5.56505H5.54788H5.5307H5.51353H5.49635H5.47918H5.462H5.44483H5.42765H5.41048H5.3933H5.37613H5.35895H5.34178H5.3246H5.30743H5.29025H5.27308H5.2559H5.23873H5.22155H5.20438H5.1872H5.17003H5.15285H5.13568H5.1185H5.10133H5.08415H5.06698H5.0498H5.03262H5.01545H4.99827H4.9811H4.96392H4.94675H4.92957H4.9124H4.89522H4.87805H4.86087H4.8437H4.82652H4.80935H4.79217H4.775H4.75782H4.74065H4.72347H4.7063H4.68912H4.67195H4.65477H4.6376H4.62042H4.60325H4.58607H4.5689H4.55172H4.53455H4.51737H4.5002H4.48302H4.46584H4.44867H4.43149H4.41432H4.39714H4.37997H4.36279H4.34562H4.32844H4.31127H4.29409H4.27692H4.25974H4.24257H4.22539H4.20822H4.19104H4.17387H4.15669H4.13952H4.12234H4.10517H4.08799H4.07082H4.05364H4.03647H4.01929H4.00212H3.98494H3.96777H3.95059H3.93341H3.91624H3.89906H3.88189H3.86471H3.84754H3.83036H3.81319H3.79601H3.77884H3.76166H3.74449H3.72731H3.71014H3.69296H3.67579H3.65861H3.64144H3.62426H3.60709H3.58991H3.57274H3.55556H3.53839H3.52121H3.50404H3.48686H3.46969H3.45251H3.43534H3.41816H3.40099H3.38381H3.36663H3.34946H3.33228H3.31511H3.29793H3.28076H3.26358H3.24641H3.22923H3.21206H3.19488H3.17771H3.16053H3.14336H3.12618H3.10901H3.09183H3.07466H3.05748H3.04031H3.02313H3.00596H2.98878H2.97161H2.95443H2.93726H2.92008H2.90291H2.88573H2.86856H2.85138H2.8342H2.81703H2.79985H2.78268H2.7655H2.74833H2.73115H2.71398H2.6968H2.67963H2.66245H2.64528H2.6281H2.61093H2.59375H2.57658H2.5594H2.54223H2.52505H2.50788H2.4907H2.47353H2.45635H2.43918H2.422C2.20533 11.8812 2.04621 11.8229 1.94113 11.718C1.83607 11.613 1.77763 11.4542 1.77763 11.2378C1.77757 10.634 1.77781 10.0302 1.77805 9.42646C1.77872 7.74214 1.77939 6.05771 1.77353 4.37332V4.37332C1.77288 4.19052 1.82862 4.02467 1.93598 3.90672Z" fill="#FFC200" stroke="#FFC200" stroke-width="0.1"/>
<path d="M9.1782 0.892179L9.2605 0.961834C9.28777 0.984913 9.31676 1.00813 9.34634 1.03182L9.1782 0.892179ZM9.1782 0.892179V0.950228M9.1782 0.892179V0.950228M9.1782 0.950228H9.02369H9.01315L9.00351 0.954483C8.8923 1.00355 8.81382 1.073 8.76467 1.1629C8.71598 1.25193 8.69849 1.3566 8.70087 1.47245C8.70746 1.79095 8.7061 2.10923 8.70473 2.42826C8.70416 2.56069 8.70359 2.69325 8.70359 2.82601V2.8881C8.70037 2.88822 8.69733 2.88829 8.69415 2.88829L8.69408 2.88829C7.71969 2.88966 6.81521 3.14061 6.00366 3.68916C4.90563 4.43138 4.21879 5.45558 3.94764 6.75821L3.99658 6.76839L3.94764 6.75821C3.85141 7.22057 3.85604 7.68734 3.86061 8.14784L9.1782 0.950228ZM8.75382 7.88318L8.70382 7.88325C8.70382 7.88325 8.70382 7.88324 8.70382 7.88324C8.70333 7.54718 8.70343 7.21109 8.70352 6.87498C8.70356 6.74046 8.70359 6.60595 8.70359 6.47143V6.47121V6.47099V6.47077V6.47055V6.47034V6.47012V6.4699V6.46969V6.46947V6.46925V6.46903V6.46881V6.4686V6.46838V6.46816V6.46795V6.46773V6.46751V6.46729V6.46707V6.46686V6.46664V6.46642V6.46621V6.46599V6.46577V6.46555V6.46533V6.46512V6.4649V6.46468V6.46447V6.46425V6.46403V6.46381V6.46359V6.46338V6.46316V6.46294V6.46273V6.46251V6.46229V6.46207V6.46186V6.46164V6.46142V6.4612V6.46099V6.46077V6.46055V6.46033V6.46012V6.4599V6.45968V6.45946V6.45925V6.45903V6.45881V6.45859V6.45838V6.45816V6.45794V6.45772V6.45751V6.45729V6.45707V6.45685V6.45664V6.45642V6.4562V6.45598V6.45577V6.45555V6.45533V6.45511V6.4549V6.45468V6.45446V6.45425V6.45403V6.45381V6.45359V6.45338V6.45316V6.45294V6.45272V6.45251V6.45229V6.45207V6.45185V6.45164V6.45142V6.4512V6.45098V6.45077V6.45055V6.45033V6.45012V6.4499V6.44968V6.44946V6.44925V6.44903V6.44881V6.44859V6.44838V6.44816V6.44794V6.44773V6.44751V6.44729V6.44707V6.44686V6.44664V6.44642V6.4462V6.44599V6.44577V6.44555V6.44534V6.44512V6.4449V6.44468V6.44447V6.44425V6.44403V6.44382V6.4436V6.44338V6.44316V6.44295V6.44273V6.44251V6.4423V6.44208V6.44186V6.44164V6.44143V6.44121V6.44099V6.44078V6.44056V6.44034V6.44012V6.43991V6.43969V6.43947V6.43926V6.43904V6.43882V6.4386V6.43839V6.43817V6.43795V6.43774V6.43752V6.4373V6.43709V6.43687V6.43665V6.43643V6.43622V6.436V6.43578V6.43557V6.43535V6.43513V6.43492V6.4347V6.43448V6.43427V6.43405V6.43383V6.43361V6.4334V6.43318V6.43296V6.43275V6.43253V6.43231V6.4321V6.43188V6.43166V6.43145V6.43123V6.43101V6.4308V6.43058V6.43036V6.43015V6.42993V6.42971V6.42949V6.42928V6.42906V6.42884V6.42863V6.42841V6.42819V6.42798V6.42776V6.42754V6.42733V6.42711V6.42689V6.42668V6.42646V6.42624V6.42603V6.42581V6.42559V6.42538V6.42516V6.42494V6.42473V6.42451V6.4243V6.42408V6.42386V6.42365V6.42343V6.42321V6.423V6.42278V6.42256V6.42235V6.42213V6.42191V6.4217V6.42148V6.42126V6.42105V6.42083V6.42062V6.4204V6.42018V6.41997V6.41975V6.41953V6.41932V6.4191V6.41888V6.41867V6.41845V6.41824V6.41802V6.4178V6.41759V6.41737V6.41715V6.41694V6.41672V6.41651V6.41629V6.41607V6.41586V6.41564V6.41542V6.41521V6.41499V6.41478V6.41456V6.41434V6.41413V6.41391V6.4137V6.41348V6.41326V6.41305V6.41283V6.41262V6.4124V6.41218V6.41197V6.41175V6.41154V6.41132V6.4111V6.41089V6.41067V6.41046V6.41024V6.41002V6.40981V6.40959V6.40938V6.40916V6.40895V6.40873V6.40851V6.4083V6.40808V6.40787V6.40765V6.40743V6.40722V6.407V6.40695C7.03688 6.27432 5.52406 6.95488 4.68699 8.51826L4.68697 8.51828C4.64092 8.60417 4.58711 8.68261 4.51469 8.73757C4.44065 8.79376 4.35037 8.82301 4.23709 8.81579L4.23708 8.81579C4.14054 8.80962 4.04775 8.7652 3.97909 8.69986C3.91041 8.63452 3.86242 8.54478 3.86255 8.44588L9.95682 7.65653C9.78609 7.83426 9.61536 8.012 9.44463 8.18973L9.44462 8.18975C9.3808 8.25614 9.30887 8.30452 9.228 8.32677C9.14656 8.34917 9.06 8.34397 8.96948 8.30955M8.75382 7.88318C8.75405 8.06992 8.83581 8.20543 8.98725 8.26282M8.75382 7.88318C8.75333 7.54719 8.75343 7.21121 8.75352 6.87514C8.75356 6.74059 8.75359 6.60602 8.75359 6.47143V6.36097L8.75382 7.88318ZM8.98725 8.26282L8.96948 8.30955M8.98725 8.26282C9.15077 8.32499 9.28992 8.27853 9.40857 8.1551L8.96948 8.30955M8.98725 8.26282L8.96954 8.30957C8.96952 8.30957 8.9695 8.30956 8.96948 8.30955M9.09884 3.72477L9.09875 3.72478C9.0257 3.72663 8.95289 3.72593 8.88079 3.72479L8.88158 3.67479M9.09884 3.72477L4.85906 6.90703C4.82186 6.94022 4.7845 6.97355 4.74682 7.00687C4.74872 6.99701 4.75061 6.98719 4.75249 6.9774C4.77544 6.8579 4.79745 6.74335 4.83192 6.63067L4.83192 6.63066C5.27919 5.16793 6.24126 4.2373 7.7128 3.83484M9.09884 3.72477C9.2295 3.72122 9.33957 3.68097 9.41754 3.60314C9.4956 3.52521 9.53574 3.41531 9.53759 3.28379M9.09884 3.72477L9.4876 3.28308M8.88158 3.67479L8.88093 3.72479C8.48365 3.71956 8.09146 3.73135 7.7128 3.83484M8.88158 3.67479C8.4835 3.66955 8.08541 3.68117 7.69962 3.78661M8.88158 3.67479C8.95355 3.67593 9.02551 3.67661 9.09748 3.67479L7.69962 3.78661M7.7128 3.83484L7.69962 3.78661M7.7128 3.83484L7.69962 3.78661M9.53734 5.9852C9.53287 5.8631 9.49172 5.75646 9.41699 5.68054C9.34188 5.60424 9.23685 5.56309 9.11319 5.56536C8.99645 5.56751 8.8793 5.56883 8.76189 5.57015C8.33411 5.57496 7.90302 5.5798 7.47707 5.62507C6.68652 5.70907 5.97397 6.02357 5.34092 6.50026L9.48947 6.29765C9.4891 6.34206 9.48874 6.38647 9.48874 6.43089V6.94082C9.50541 6.92347 9.52208 6.90612 9.53874 6.88879M9.53734 5.9852L9.48737 5.98702L9.53733 5.98518C9.53733 5.98518 9.53734 5.98519 9.53734 5.9852ZM9.53734 5.9852C9.5412 6.08983 9.54033 6.19523 9.53947 6.29934C9.5391 6.34348 9.53874 6.38738 9.53874 6.43089V6.43197V6.43305V6.43413V6.43521V6.43629V6.43737V6.43845V6.43953V6.44062V6.4417V6.44278V6.44386V6.44494V6.44602V6.4471V6.44818V6.44926V6.45034V6.45142V6.45251V6.45359V6.45467V6.45575V6.45683V6.45791V6.45899V6.46007V6.46115V6.46224V6.46332V6.4644V6.46548V6.46656V6.46764V6.46872V6.46981V6.47089V6.47197V6.47305V6.47413V6.47521V6.4763V6.47738V6.47846V6.47954V6.48062V6.48171V6.48279V6.48387V6.48495V6.48603V6.48712V6.4882V6.48928V6.49036V6.49145V6.49253V6.49361V6.4947V6.49578V6.49686V6.49794V6.49903V6.50011V6.50119V6.50228V6.50336V6.50444V6.50553V6.50661V6.50769V6.50878V6.50986V6.51095V6.51203V6.51311V6.5142V6.51528V6.51637V6.51745V6.51854V6.51962V6.52071V6.52179V6.52288V6.52396V6.52505V6.52613V6.52722V6.5283V6.52939V6.53048V6.53156V6.53265V6.53373V6.53482V6.53591V6.53699V6.53808V6.53917V6.54025V6.54134V6.54243V6.54352V6.5446V6.54569V6.54678V6.54787V6.54895V6.55004V6.55113V6.55222V6.55331V6.5544V6.55549V6.55658V6.55766V6.55875V6.55984V6.56093V6.56202V6.56311V6.5642V6.56529V6.56638V6.56747V6.56856V6.56966V6.57075V6.57184V6.57293V6.57402V6.57511V6.5762V6.5773V6.57839V6.57948V6.58057V6.58167V6.58276V6.58385V6.58495V6.58604V6.58713V6.58823V6.58932V6.59041V6.59151V6.5926V6.5937V6.59479V6.59589V6.59698V6.59808V6.59917V6.60027V6.60137V6.60246V6.60356V6.60466V6.60575V6.60685V6.60795V6.60905V6.61014V6.61124V6.61234V6.61344V6.61454V6.61564V6.61673V6.61783V6.61893V6.62003V6.62113V6.62223V6.62333V6.62443V6.62554V6.62664V6.62774V6.62884V6.62994V6.63104V6.63215V6.63325V6.63435V6.63545V6.63656V6.63766V6.63876V6.63987V6.64097V6.64208V6.64318V6.64429V6.64539V6.6465V6.6476V6.64871V6.64981V6.65092V6.65203V6.65313V6.65424V6.65535V6.65646V6.65757V6.65867V6.65978V6.66089V6.662V6.66311V6.66422V6.66533V6.66644V6.66755V6.66866V6.66977V6.67088V6.672V6.67311V6.67422V6.67533V6.67645V6.67756V6.67867V6.67978V6.6809V6.68201V6.68313V6.68424V6.68536V6.68647V6.68759V6.6887V6.68982V6.69094V6.69206V6.69317V6.69429V6.69541V6.69653V6.69764V6.69876V6.69988V6.701V6.70212V6.70324V6.70436V6.70548V6.7066V6.70773V6.70885V6.70997V6.71109V6.71221V6.71334V6.71446V6.71558V6.71671V6.71783V6.71896V6.72008V6.72121V6.72233V6.72346V6.72459V6.72571V6.72684V6.72797V6.7291V6.73022V6.73135V6.73248V6.73361V6.73474V6.73587V6.737V6.73813V6.73926V6.74039V6.74153V6.74266V6.74379V6.74492V6.74606V6.74719V6.74832V6.74946V6.75059V6.75173V6.75286V6.754V6.75514V6.75627V6.75741V6.75855V6.75969V6.76082V6.76196V6.7631V6.76424V6.76538V6.76652V6.76766V6.7688V6.76994V6.77109V6.77223V6.77337V6.77451V6.77566V6.7768V6.77794V6.77909V6.78023V6.78138V6.78253V6.78367V6.78482V6.78597V6.78711V6.78826V6.78941V6.79056V6.79171V6.79286V6.79401V6.79516V6.79631V6.79746V6.79861V6.79976V6.80092V6.80207V6.80322V6.80438V6.80553V6.80669V6.80784V6.809V6.81015V6.81131V6.81247V6.81362V6.81478V6.81594V6.8171V6.81826V6.81942V6.82058V6.82174V6.8229V6.82406V6.82522V6.82639V6.82755V6.82871V6.82988V6.83104V6.8322V6.83337V6.83454V6.8357V6.83687V6.83804V6.8392V6.84037V6.84154V6.84271V6.84388V6.84505V6.84622V6.84739V6.84856V6.84973V6.85091V6.85208V6.85325V6.85443V6.8556V6.85678V6.85795V6.85913V6.8603V6.86148V6.86266V6.86384V6.86501V6.86619V6.86737V6.86855V6.86973V6.87091V6.8721V6.87328V6.87446V6.87564V6.87683V6.87801V6.8792V6.88038V6.88157V6.88275V6.88394V6.88513V6.88631V6.8875V6.88869V6.88879M9.53874 6.88879V6.88988V6.89107V6.89226V6.89345V6.89464V6.89584V6.89703V6.89822V6.89942V6.90061V6.9018V6.903V6.9042V6.90539V6.90659V6.90779V6.90899V6.91018V6.91138V6.91258V6.91378V6.91498V6.91619V6.91739V6.91859V6.91979V6.921V6.9222V6.92341V6.92461V6.92582V6.92702V6.92823V6.92944V6.93065V6.93186V6.93307V6.93428V6.93549V6.9367V6.93791V6.93912V6.94033V6.94155V6.94276V6.94398V6.94519V6.94641V6.94762V6.94884V6.95006V6.95128V6.9525V6.95372V6.95494V6.95616V6.95738V6.9586V6.95982V6.96095C9.78586 6.70377 10.0309 6.44873 10.2746 6.19508C10.775 5.67429 11.2698 5.15934 11.7654 4.64359M9.53874 6.88879C9.77417 6.64377 10.0077 6.40066 10.2401 6.15881C10.7288 5.65024 11.2121 5.14722 11.6961 4.64359M11.6961 4.64359C11.7072 4.65514 11.7183 4.66669 11.7294 4.67824L11.7654 4.64359M11.6961 4.64359C11.7072 4.63204 11.7183 4.6205 11.7294 4.60895L11.7654 4.64359M11.6961 4.64359C11.3549 4.28851 11.0156 3.93546 10.6754 3.58132C10.2992 3.18975 9.92169 2.79685 9.53874 2.39838M11.7654 4.64359C11.4132 4.27709 11.0633 3.91284 10.7122 3.54744C10.3239 3.14333 9.9343 2.73781 9.53874 2.32622V2.32649V2.32681V2.32712V2.32744V2.32775V2.32806V2.32837V2.32869V2.329V2.32931V2.32962V2.32993V2.33024V2.33054V2.33085V2.33116V2.33147V2.33177V2.33208V2.33238V2.33269V2.33299V2.3333V2.3336V2.3339V2.3342V2.33451V2.33481V2.33511V2.33541V2.33571V2.33601V2.33631V2.33661V2.3369V2.3372V2.3375V2.33779V2.33809V2.33839V2.33868V2.33897V2.33927V2.33956V2.33986V2.34015V2.34044V2.34073V2.34102V2.34131V2.3416V2.34189V2.34218V2.34247V2.34276V2.34305V2.34334V2.34362V2.34391V2.3442V2.34448V2.34477V2.34505V2.34534V2.34562V2.3459V2.34619V2.34647V2.34675V2.34703V2.34731V2.34759V2.34788V2.34816V2.34843V2.34871V2.34899V2.34927V2.34955V2.34983V2.3501V2.35038V2.35066V2.35093V2.35121V2.35148V2.35176V2.35203V2.3523V2.35258V2.35285V2.35312V2.3534V2.35367V2.35394V2.35421V2.35448V2.35475V2.35502V2.35529V2.35556V2.35583V2.35609V2.35636V2.35663V2.3569V2.35716V2.35743V2.3577V2.35796V2.35823V2.35849V2.35875V2.35902V2.35928V2.35955V2.35981V2.36007V2.36033V2.3606V2.36086V2.36112V2.36138V2.36164V2.3619V2.36216V2.36242V2.36268V2.36294V2.36319V2.36345V2.36371V2.36397V2.36422V2.36448V2.36474V2.36499V2.36525V2.3655V2.36576V2.36601V2.36627V2.36652V2.36677V2.36703V2.36728V2.36753V2.36778V2.36804V2.36829V2.36854V2.36879V2.36904V2.36929V2.36954V2.36979V2.37004V2.37029V2.37054V2.37079V2.37103V2.37128V2.37153V2.37178V2.37202V2.37227V2.37252V2.37276V2.37301V2.37326V2.3735V2.37375V2.37399V2.37423V2.37448V2.37472V2.37497V2.37521V2.37545V2.3757V2.37594V2.37618V2.37642V2.37666V2.37691V2.37715V2.37739V2.37763V2.37787V2.37811V2.37835V2.37859V2.37883V2.37907V2.3793V2.37954V2.37978V2.38002V2.38026V2.3805V2.38073V2.38097V2.38121V2.38144V2.38168V2.38192V2.38215V2.38239V2.38262V2.38286V2.38309V2.38333V2.38356V2.3838V2.38403V2.38426V2.3845V2.38473V2.38496V2.3852V2.38543V2.38566V2.3859V2.38613V2.38636V2.38659V2.38682V2.38705V2.38729V2.38752V2.38775V2.38798V2.38821V2.38844V2.38867V2.3889V2.38913V2.38936V2.38959V2.38982V2.39004V2.39027V2.3905V2.39073V2.39096V2.39119V2.39141V2.39164V2.39187V2.3921V2.39232V2.39255V2.39278V2.393V2.39323V2.39346V2.39368V2.39391V2.39413V2.39436V2.39458V2.39481V2.39504V2.39526V2.39549V2.39571V2.39593V2.39616V2.39638V2.39661V2.39683V2.39706V2.39728V2.3975V2.39773V2.39795V2.39817V2.39838M9.53874 2.39838C9.52208 2.38105 9.50541 2.36371 9.48874 2.34635V2.41813C9.48874 2.50331 9.48899 2.58849 9.48925 2.67367C9.48987 2.87681 9.49048 3.07994 9.4876 3.28308M9.53874 2.39838V2.3984V2.39862V2.39884V2.39906V2.39929V2.39951V2.39973V2.39995V2.40018V2.4004V2.40062V2.40084V2.40106V2.40128V2.40151V2.40173V2.40195V2.40217V2.40239V2.40261V2.40283V2.40305V2.40327V2.40349V2.40371V2.40394V2.40416V2.40438V2.4046V2.40482V2.40504V2.40526V2.40548V2.40569V2.40591V2.40613V2.40635V2.40657V2.40679V2.40701V2.40723V2.40745V2.40767V2.40789V2.40811V2.40832V2.40854V2.40876V2.40898V2.4092V2.40942V2.40964V2.40985V2.41007V2.41029V2.41051V2.41073V2.41095V2.41116V2.41138V2.4116V2.41182V2.41204V2.41225V2.41247V2.41269V2.41291V2.41313V2.41334V2.41356V2.41378V2.414V2.41421V2.41443V2.41465V2.41487V2.41508V2.4153V2.41552V2.41574V2.41595V2.41617V2.41639V2.41661V2.41682V2.41704V2.41726V2.41748V2.41769V2.41791V2.41813C9.53874 2.50298 9.53899 2.58796 9.53925 2.67304C9.53987 2.87637 9.54049 3.0802 9.53759 3.28379M9.53759 3.28379C9.53759 3.28379 9.53759 3.28379 9.53759 3.28378L9.4876 3.28308M9.53759 3.28379L9.4876 3.28308" fill="#FFC200" stroke="#FFC200" stroke-width="0.1"/>
</svg>
