<svg width="384" height="384" viewBox="0 0 384 384" fill="none" xmlns="http://www.w3.org/2000/svg">
<path d="M279.288 383.359H102.628C98.1079 382.369 93.5879 381.389 89.0679 380.389C38.2079 369.099 0.267889 322.289 0.11789 270.259C-0.0421105 217.869 -0.0721105 165.469 0.237889 113.079C0.28789 104.329 1.47789 95.3694 3.64789 86.8894C16.8579 35.0494 62.2779 0.0494312 115.748 0.0194312C166.388 -0.000568826 217.028 -0.0305688 267.658 0.0794312C273.988 0.0894312 280.368 0.619431 286.628 1.52943C331.738 8.04943 370.648 44.3194 380.308 88.6594C381.368 93.5394 382.328 98.4494 383.338 103.339V280.789C382.848 282.749 382.198 284.679 381.898 286.669C375.088 332.059 339.318 370.379 294.338 380.369C289.348 381.479 284.308 382.369 279.288 383.359ZM191.328 357.859C216.158 357.859 240.978 357.969 265.808 357.779C272.258 357.729 278.828 357.359 285.128 356.079C328.498 347.219 357.758 311.209 357.818 266.829C357.888 216.789 357.898 166.759 357.758 116.719C357.738 110.399 357.248 103.949 355.928 97.7894C346.608 54.1794 311.048 25.5594 266.368 25.5194C216.588 25.4694 166.818 25.4494 117.038 25.5894C110.718 25.6094 104.268 26.0394 98.0979 27.3294C54.6479 36.3794 25.6279 72.2694 25.5879 116.719C25.5479 166.759 25.4279 216.789 25.7279 266.829C25.7779 275.209 26.8179 283.829 29.0179 291.899C39.8279 331.549 74.7779 357.689 116.488 357.839C141.438 357.929 166.388 357.859 191.338 357.859H191.328Z" fill="#FFC200"/>
<path d="M191.958 173.589C195.208 170.209 198.158 166.999 201.248 163.949C206.788 158.489 214.828 158.429 219.938 163.699C224.958 168.869 224.798 176.689 219.458 182.129C216.408 185.239 213.208 188.199 209.788 191.499C211.748 193.699 213.438 195.639 215.178 197.549C228.868 212.569 228.978 234.999 214.918 249.699C202.678 262.499 190.158 275.049 177.358 287.299C162.248 301.759 139.578 301.569 124.428 287.079C114.878 277.939 105.508 268.589 96.368 259.029C81.558 243.549 81.808 220.599 96.808 205.249C103.868 198.019 111.158 191.009 118.408 183.979C123.498 179.039 131.208 179.189 136.188 184.169C141.318 189.309 141.328 196.949 136.118 202.209C129.448 208.949 122.698 215.609 116.018 222.339C109.648 228.769 109.648 236.039 116.068 242.329C124.718 250.799 133.398 259.229 142.128 267.609C147.858 273.109 155.188 273.269 160.808 267.739C172.728 256.019 184.548 244.189 196.258 232.259C201.588 226.829 201.368 219.449 196.138 213.839C194.868 212.469 193.578 211.119 191.848 209.289C188.528 212.789 185.448 216.189 182.188 219.419C176.368 225.179 168.518 225.389 163.228 220.059C157.958 214.759 158.278 206.969 164.108 201.129C167.268 197.959 170.578 194.919 174.028 191.629C167.908 185.929 162.708 180.159 160.228 172.449C155.608 158.059 157.998 144.919 168.318 133.959C180.378 121.159 192.848 108.729 205.578 96.5994C221.118 81.7894 244.948 82.3294 260.158 97.3894C268.758 105.899 277.308 114.469 285.728 123.169C301.698 139.659 301.548 162.589 285.418 178.969C278.768 185.729 272.038 192.409 265.308 199.089C259.948 204.409 252.078 204.559 246.948 199.489C241.808 194.419 241.888 186.489 247.188 181.149C253.778 174.509 260.438 167.929 267.018 161.279C273.558 154.679 273.568 147.559 267.048 140.989C258.868 132.759 250.668 124.549 242.438 116.369C235.748 109.719 228.508 109.719 221.848 116.369C211.068 127.119 200.318 137.889 189.558 148.659C181.438 156.779 181.448 163.249 189.558 171.309C190.168 171.919 190.808 172.499 191.958 173.599V173.589Z" fill="#FFC200"/>
</svg>
