<svg width="12" height="12" viewBox="0 0 12 12" fill="none" xmlns="http://www.w3.org/2000/svg">
<path d="M0 2.95918C0.0304103 2.85274 0.0580837 2.74509 0.0918392 2.63956C0.341204 1.8568 1.06801 1.30668 1.88879 1.29816C2.76126 1.28904 3.63404 1.29999 4.50651 1.29238C4.85957 1.28934 5.17584 1.54935 5.18405 1.94012C5.19165 2.30657 4.88877 2.59304 4.50012 2.59334C3.65806 2.59456 2.81569 2.59334 1.97363 2.59395C1.57161 2.59395 1.29761 2.86825 1.29761 3.27179C1.2973 5.40782 1.2973 7.54353 1.29761 9.67956C1.29761 10.0804 1.57404 10.3577 1.97515 10.3577C4.11117 10.3583 6.24689 10.3583 8.38291 10.3577C8.78676 10.3577 9.06137 10.084 9.06167 9.68199C9.06258 8.83597 9.06137 7.98996 9.06228 7.14394C9.06258 6.79635 9.28245 6.53908 9.62457 6.48008C9.98615 6.41774 10.3523 6.70938 10.3565 7.07947C10.3641 7.74333 10.3626 8.40719 10.3593 9.07105C10.3578 9.39279 10.3678 9.71757 10.3301 10.036C10.2361 10.83 9.51448 11.5328 8.71895 11.6313C8.60278 11.6456 8.48509 11.6538 8.36801 11.6538C6.2472 11.655 4.12638 11.6432 2.00587 11.6599C0.999892 11.6678 0.16604 10.9474 0.0231119 10.0265C0.0212872 10.0144 0.00851489 10.0043 0.000608207 9.99309C0 7.64845 0 5.30381 0 2.95918Z" fill="#FFC200"/>
<path d="M11.1539 0C11.1858 0.0152052 11.2174 0.0316268 11.2503 0.0450073C11.4939 0.143841 11.6541 0.374351 11.6544 0.636488C11.6554 1.93775 11.6557 3.2387 11.6544 4.53996C11.6541 4.89363 11.3628 5.18223 11.0104 5.18466C10.6561 5.18709 10.3596 4.89454 10.3587 4.53449C10.3568 3.80616 10.3581 3.07783 10.3581 2.3495C10.3581 2.31331 10.3581 2.27682 10.3581 2.24063L10.3331 2.22512C10.3024 2.26131 10.2741 2.29993 10.2407 2.33339C8.50302 4.07194 6.76477 5.8102 5.02651 7.54815C4.7291 7.84556 4.30062 7.84495 4.04335 7.54815C3.83108 7.30335 3.83078 6.94055 4.04335 6.69544C4.07558 6.65834 4.11146 6.62428 4.14644 6.58931C5.87648 4.85896 7.60652 3.12892 9.33718 1.39948C9.36546 1.3712 9.40195 1.35113 9.43449 1.32711L9.41624 1.297H9.29612C8.58665 1.297 7.87748 1.297 7.16801 1.297C6.81738 1.297 6.54703 1.09173 6.48803 0.78185C6.42295 0.441254 6.58869 0.160262 6.93354 0.0246324C6.94571 0.0197667 6.95514 0.0085149 6.96608 0.000304103C8.36222 0.000304103 9.75836 0.000304103 11.1545 0.000304103L11.1539 0Z" fill="#FFC200"/>
</svg>
